HIERARCHY
ROOT Hips
{
	OFFSET 0.00000 0.00000 0.00000
	CHANNELS 6 Xposition Yposition Zposition Zrotation Yrotation Xrotation 
	JOINT LHipJoint
	{
		OFFSET 0 0 0
		CHANNELS 3 Zrotation Yrotation Xrotation
		JOINT LeftUpLeg
		{
			OFFSET 1.53139 -1.83434 0.76626
			CHANNELS 3 Zrotation Yrotation Xrotation
			JOINT LeftLeg
			{
				OFFSET 2.56112 -7.03663 0.00000
				CHANNELS 3 Zrotation Yrotation Xrotation
				JOINT LeftFoot
				{
					OFFSET 2.59983 -7.14299 0.00000
					CHANNELS 3 Zrotation Yrotation Xrotation
					JOINT LeftToeBase
					{
						OFFSET 0.13742 -0.37757 2.00054
						CHANNELS 3 Zrotation Yrotation Xrotation
						End Site
						{
							OFFSET 0.00000 -0.00000 1.02897
						}
					}
				}
			}
		}
	}
	JOINT RHipJoint
	{
		OFFSET 0 0 0
		CHANNELS 3 Zrotation Yrotation Xrotation
		JOINT RightUpLeg
		{
			OFFSET -1.40122 -1.83435 0.76627
			CHANNELS 3 Zrotation Yrotation Xrotation
			JOINT RightLeg
			{
				OFFSET -2.54052 -6.98003 0.00000
				CHANNELS 3 Zrotation Yrotation Xrotation
				JOINT RightFoot
				{
					OFFSET -2.63179 -7.23079 0.00000
					CHANNELS 3 Zrotation Yrotation Xrotation
					JOINT RightToeBase
					{
						OFFSET -0.24131 -0.66299 2.03908
						CHANNELS 3 Zrotation Yrotation Xrotation
						End Site
						{
							OFFSET -0.00000 -0.00000 1.07391
						}
					}
				}
			}
		}
	}
	JOINT LowerBack
	{
		OFFSET 0 0 0
		CHANNELS 3 Zrotation Yrotation Xrotation
		JOINT Spine
		{
			OFFSET 0.01174 2.10302 -0.29778
			CHANNELS 3 Zrotation Yrotation Xrotation
			JOINT Spine1
			{
				OFFSET 0.00772 2.13227 -0.01247
				CHANNELS 3 Zrotation Yrotation Xrotation
				JOINT Neck
				{
					OFFSET 0 0 0
					CHANNELS 3 Zrotation Yrotation Xrotation
					JOINT Neck1
					{
						OFFSET -0.09219 1.60848 0.31481
						CHANNELS 3 Zrotation Yrotation Xrotation
						JOINT Head
						{
							OFFSET 0.13974 1.65456 -0.31134
							CHANNELS 3 Zrotation Yrotation Xrotation
							End Site
							{
								OFFSET 0.04742 1.69515 -0.14578
							}
						}
					}
				}
				JOINT LeftShoulder
				{
					OFFSET 0 0 0
					CHANNELS 3 Zrotation Yrotation Xrotation
					JOINT LeftArm
					{
						OFFSET 3.24909 1.02882 -0.23993
						CHANNELS 3 Zrotation Yrotation Xrotation
						JOINT LeftForeArm
						{
							OFFSET 5.32955 -0.00000 -0.00000
							CHANNELS 3 Zrotation Yrotation Xrotation
							JOINT LeftHand
							{
								OFFSET 3.69232 -0.00000 -0.00000
								CHANNELS 3 Zrotation Yrotation Xrotation
								JOINT LeftFingerBase
								{
									OFFSET 0 0 0
									CHANNELS 3 Zrotation Yrotation Xrotation
									JOINT LeftHandIndex1
									{
										OFFSET 0.53660 -0.00000 -0.00000
										CHANNELS 3 Zrotation Yrotation Xrotation
										End Site
										{
											OFFSET 0.43262 -0.00000 -0.00000
										}
									}
								}
								JOINT LThumb
								{
									OFFSET 0 0 0
									CHANNELS 3 Zrotation Yrotation Xrotation
									End Site
									{
										OFFSET 0.43922 -0.00000 0.43922
									}
								}
							}
						}
					}
				}
				JOINT RightShoulder
				{
					OFFSET 0 0 0
					CHANNELS 3 Zrotation Yrotation Xrotation
					JOINT RightArm
					{
						OFFSET -3.21387 0.93002 -0.34594
						CHANNELS 3 Zrotation Yrotation Xrotation
						JOINT RightForeArm
						{
							OFFSET -5.23431 -0.00000 0.00000
							CHANNELS 3 Zrotation Yrotation Xrotation
							JOINT RightHand
							{
								OFFSET -3.55301 -0.00000 -0.00000
								CHANNELS 3 Zrotation Yrotation Xrotation
								JOINT RightFingerBase
								{
									OFFSET 0 0 0
									CHANNELS 3 Zrotation Yrotation Xrotation
									JOINT RightHandIndex1
									{
										OFFSET -0.77252 -0.00000 -0.00000
										CHANNELS 3 Zrotation Yrotation Xrotation
										End Site
										{
											OFFSET -0.62283 -0.00000 -0.00000
										}
									}
								}
								JOINT RThumb
								{
									OFFSET 0 0 0
									CHANNELS 3 Zrotation Yrotation Xrotation
									End Site
									{
										OFFSET -0.63234 -0.00000 0.63234
									}
								}
							}
						}
					}
				}
			}
		}
	}
}
MOTION
Frames: 15
Frame Time: .0083333
4.7390 18.0606 -1.3849 5.8220 -53.3273 355.6390 0.0000 0.0000 0.0000 -21.5466 -7.7059 -10.8595 7.0170 15.3462 48.9385 -0.4505 -15.0168 -4.4302 1.1190 -6.7197 -18.8875 0.0000 0.0000 0.0000 16.7262 10.5929 -11.3084 -2.4323 -9.7138 28.0547 -0.0425 14.5288 -10.6814 -0.0025 0.3229 -0.8873 -3.8720 -4.3339 13.6240 5.7982 -6.0405 0.1585 9.5692 -2.7957 -6.4159 -15.4503 -20.9551 7.7009 14.8921 -38.7543 31.3377 2.1990 -18.2238 16.5204 -0.0000 0.0000 0.0000 -91.9126 11.7251 17.6833 19.9414 -30.5716 -5.5015 -0.0000 -0.0000 5.9812 18.5450 25.2740 8.1509 -7.1250 0.0000 -0.0000 -12.0741 56.0440 -3.3052 -0.0000 0.0000 0.0000 83.2252 2.2256 17.4343 -20.9557 31.7765 -6.0266 0.0000 -0.0000 -0.1926 -17.7965 6.9822 -2.2346 7.1250 -0.0000 -0.0000 6.5784 -22.6645 3.5583
4.8115 18.0617 -1.4330 6.0108 -53.5354 355.5160 0.0000 0.0000 0.0000 -21.8398 -7.2624 -9.9321 6.8867 15.2358 48.4447 -0.4914 -15.2465 -4.0261 1.1372 -6.7725 -19.0431 0.0000 0.0000 0.0000 16.4832 10.6395 -11.7427 -2.4393 -9.7267 28.0962 0.0271 14.9361 -10.1841 -0.0001 0.0570 -0.1566 -3.9127 -4.4061 13.4245 5.7368 -6.1440 0.1659 9.5148 -2.8537 -6.2799 -15.2505 -20.9076 7.6654 14.7602 -38.6238 31.3609 2.1775 -18.1658 16.4164 0.0000 -0.0000 0.0000 -91.8547 11.6709 17.6284 19.9236 -30.5502 -5.4925 -0.0000 -0.0000 6.0993 18.0067 25.2429 7.8920 -7.1250 0.0000 -0.0000 -12.6160 55.9032 -3.4136 0.0000 -0.0000 0.0000 83.3802 2.2685 17.3244 -20.7806 31.5713 -5.9346 0.0000 -0.0000 -0.0305 -17.6076 7.1062 -2.2483 7.1250 -0.0000 -0.0000 6.7140 -22.5435 3.6513
4.8841 18.0615 -1.4819 6.1143 -53.7272 355.4220 0.0000 0.0000 0.0000 -22.1009 -6.9209 -8.8736 6.7078 15.0808 47.7603 -0.5226 -15.4135 -3.7046 1.2430 -7.0692 -19.9206 0.0000 0.0000 0.0000 16.3181 10.7757 -12.0991 -2.4506 -9.7476 28.1631 0.0808 15.1760 -9.7468 -0.0006 -0.1542 0.4237 -3.8986 -4.3676 13.2771 5.7486 -6.0884 0.1694 9.4930 -2.8311 -6.2044 -15.1993 -20.9506 7.6590 14.7159 -38.6398 31.2925 2.1579 -18.1726 16.3563 -0.0000 0.0000 0.0000 -91.8080 11.5603 17.9305 19.8659 -30.4804 -5.4632 -0.0000 -0.0000 6.1753 17.8188 25.4140 7.8540 -7.1250 0.0000 -0.0000 -12.8962 56.0351 -3.5327 -0.0000 0.0000 0.0000 83.4208 2.2808 16.8474 -20.5981 31.3562 -5.8394 0.0000 0.0000 0.1848 -17.5879 7.1396 -2.2561 7.1250 -0.0000 -0.0000 6.7277 -22.5098 3.6641
4.9577 18.0627 -1.5321 6.1803 -53.9148 355.3170 0.0000 0.0000 0.0000 -22.3019 -6.5465 -7.7741 6.4859 14.8832 46.9021 -0.5813 -15.7756 -3.1697 1.2242 -7.0175 -19.7674 0.0000 0.0000 0.0000 16.2122 10.9139 -12.4829 -2.4719 -9.7866 28.2885 0.1190 15.2546 -9.3608 -0.0017 -0.2642 0.7258 -3.9315 -4.3435 13.2755 5.8156 -6.0568 0.0984 9.5878 -2.8083 -6.2750 -15.2709 -20.9784 7.6936 14.6036 -38.6729 31.3277 2.1201 -18.2005 16.3548 0.0000 0.0000 0.0000 -91.8682 11.5835 18.1629 19.8265 -30.4327 -5.4432 -0.0000 -0.0000 6.1208 17.9572 25.3457 7.8987 -7.1250 0.0000 -0.0000 -12.7186 55.9954 -3.4706 0.0000 0.0000 0.0000 83.3013 2.0982 16.3862 -20.4655 31.1991 -5.7705 0.0000 0.0000 0.5740 -17.3705 7.3322 -2.2862 7.1250 -0.0000 -0.0000 6.8821 -22.3192 3.7795
5.0308 18.0658 -1.5774 6.4125 -54.1374 355.0140 0.0000 0.0000 0.0000 -22.6205 -6.0822 -6.5912 6.2296 14.6472 45.8963 -0.6594 -16.1830 -2.3246 0.5721 -4.8440 -13.4642 0.0000 0.0000 0.0000 16.0287 10.9059 -12.9340 -2.5047 -9.8464 28.4807 0.1755 15.4771 -8.8678 -0.0052 -0.4655 1.2792 -4.0820 -4.4214 13.2896 5.7728 -6.1864 0.0853 9.6490 -2.8684 -6.2616 -15.1371 -20.9043 7.6092 14.3990 -38.5735 31.5416 2.0556 -18.1530 16.3622 -0.0000 0.0000 0.0000 -91.8398 11.6353 17.9383 19.8432 -30.4530 -5.4517 -0.0000 -0.0000 6.1986 17.6840 25.3366 7.7694 -7.1250 0.0000 -0.0000 -12.9964 55.9308 -3.5277 -0.0000 0.0000 0.0000 83.3441 1.9238 16.4865 -20.3887 31.1078 -5.7308 0.0000 0.0000 0.7158 -17.6380 7.2394 -2.2944 7.1250 -0.0000 -0.0000 6.6889 -22.4036 3.6590
5.1078 18.0608 -1.6306 6.6813 -54.2944 354.8650 0.0000 0.0000 0.0000 -22.9492 -5.7029 -5.5793 5.9478 14.3775 44.7718 -0.7117 -16.4178 -1.6668 0.6762 -5.2582 -14.6464 0.0000 0.0000 0.0000 15.7930 11.0420 -13.5876 -2.5505 -9.9292 28.7477 0.2450 15.6973 -8.2031 -0.0183 -0.8728 2.3989 -4.2709 -4.4656 13.1112 5.7227 -6.2740 0.0870 9.6924 -2.9138 -6.1293 -14.9327 -20.9033 7.5655 14.3103 -38.5346 31.5512 2.0215 -18.1267 16.2880 0.0000 0.0000 0.0000 -91.7179 11.5435 17.8810 19.8631 -30.4771 -5.4618 -0.0000 -0.0000 6.3264 17.5534 25.4084 7.7292 -7.1250 0.0000 -0.0000 -13.1675 55.9755 -3.5897 0.0000 0.0000 0.0000 83.4828 1.8603 16.4840 -20.3268 31.0341 -5.6989 0.0000 0.0000 0.6790 -18.1657 6.9704 -2.2803 7.1250 -0.0000 -0.0000 6.3083 -22.6605 3.4110
5.1859 18.0487 -1.6878 6.9419 -54.4123 354.7450 0.0000 0.0000 0.0000 -23.2849 -5.3350 -4.6149 5.6432 14.0734 43.5324 -0.7440 -16.5817 -1.2865 0.8170 -5.7676 -16.1115 0.0000 0.0000 0.0000 15.5554 11.3185 -14.2191 -2.6042 -10.0249 29.0575 0.2922 15.7703 -7.6658 -0.0368 -1.2390 3.4067 -4.4779 -4.4412 12.9897 5.7444 -6.2679 0.0167 9.8259 -2.9031 -6.1136 -14.9585 -20.9332 7.7219 14.3473 -38.5565 31.3961 2.0582 -18.1573 16.1993 0.0000 0.0000 0.0000 -91.7794 11.4641 17.9326 19.8641 -30.4782 -5.4622 -0.0000 -0.0000 6.4602 18.0024 25.3035 7.9075 -7.1250 0.0000 -0.0000 -12.6507 55.9626 -3.4415 0.0000 0.0000 0.0000 83.4684 1.7540 16.1594 -20.2643 30.9595 -5.6667 0.0000 0.0000 0.4657 -18.2355 6.8209 -2.2408 7.1250 -0.0000 -0.0000 6.2601 -22.8138 3.3626
5.2674 18.0358 -1.7431 7.1954 -54.4614 354.5430 0.0000 0.0000 0.0000 -23.6494 -5.0879 -3.5000 5.3178 13.7330 42.1781 -0.7726 -16.6953 -0.8687 0.9916 -6.3376 -17.7670 0.0000 0.0000 0.0000 15.3169 11.6075 -14.7157 -2.6624 -10.1274 29.3903 0.3156 15.7432 -7.3290 -0.0679 -1.6817 4.6268 -4.7139 -4.4649 13.0599 5.7975 -6.3322 -0.0943 10.0491 -2.9170 -6.2284 -15.0253 -20.8951 7.8006 14.2748 -38.5019 31.4166 2.0645 -18.1538 16.1752 0.0000 -0.0000 0.0000 -91.9341 11.5087 17.9774 19.9378 -30.5674 -5.4997 -0.0000 -0.0000 6.2671 18.4676 25.2013 8.0934 -7.1250 0.0000 -0.0000 -12.1186 55.9555 -3.2915 0.0000 -0.0000 0.0000 83.3300 1.6348 15.9637 -20.1439 30.8154 -5.6049 0.0000 0.0000 0.2456 -18.2182 6.8292 -2.2413 7.1250 -0.0000 -0.0000 6.2725 -22.8058 3.3705
5.3467 18.0219 -1.7899 7.3778 -54.5886 354.3530 0.0000 0.0000 0.0000 -24.0979 -5.0051 -2.2081 4.9718 13.3519 40.7006 -0.7692 -16.5620 -0.6313 0.6568 -5.1835 -14.4326 0.0000 0.0000 0.0000 15.1086 12.0293 -15.1064 -2.7210 -10.2290 29.7216 0.3242 15.6420 -7.1088 -0.0953 -1.9906 5.4796 -4.8058 -4.5138 13.0036 5.7824 -6.4108 -0.1222 10.0917 -2.9538 -6.2031 -15.0039 -20.8199 7.8178 14.2169 -38.4188 31.5041 2.0674 -18.1246 16.1763 0.0000 -0.0000 0.0000 -91.9511 11.5165 17.9325 20.0074 -30.6513 -5.5351 -0.0000 -0.0000 6.1609 18.3378 25.2588 8.0501 -7.1250 0.0000 -0.0000 -12.2815 55.9864 -3.3460 0.0000 -0.0000 0.0000 83.3133 1.5161 15.8200 -20.0328 30.6819 -5.5481 0.0000 0.0000 0.4688 -18.1765 6.8382 -2.2387 7.1250 -0.0000 -0.0000 6.3030 -22.7982 3.3882
5.4233 18.0050 -1.8378 7.5662 -54.7485 354.2380 0.0000 0.0000 0.0000 -24.5786 -4.9654 -0.9812 4.6074 12.9276 39.0981 -0.7456 -16.2646 -0.4999 1.1483 -6.8042 -19.1365 0.0000 0.0000 0.0000 14.9002 12.3433 -15.6476 -2.7743 -10.3204 30.0208 0.3234 15.5651 -7.0401 -0.0601 -1.5819 4.3516 -4.8091 -4.5250 12.7125 5.7074 -6.4234 -0.0813 9.9709 -2.9738 -6.0020 -14.9756 -20.8040 7.7618 14.2478 -38.4421 31.5593 2.0591 -18.1239 16.2249 -0.0000 -0.0000 0.0000 -91.8027 11.3373 18.0090 20.0175 -30.6634 -5.5403 -0.0000 -0.0000 6.2898 17.8699 25.0940 7.7861 -7.1250 0.0000 -0.0000 -12.6834 55.7274 -3.3778 -0.0000 -0.0000 0.0000 83.4104 1.4785 15.4991 -19.9354 30.5645 -5.4985 0.0000 0.0000 0.7656 -18.0089 6.9207 -2.2432 7.1250 -0.0000 -0.0000 6.4242 -22.7194 3.4658
5.5040 17.9874 -1.8870 7.7538 -54.8636 354.1110 0.0000 0.0000 0.0000 -25.0332 -4.8870 0.2423 4.2343 12.4658 37.4004 -0.7207 -15.9657 -0.4113 1.0627 -6.5541 -18.4008 0.0000 0.0000 0.0000 14.6937 12.4567 -16.2367 -2.8256 -10.4072 30.3058 0.3313 15.6125 -6.9810 -0.0267 -1.0544 2.8986 -4.8799 -4.5436 12.5579 5.7093 -6.4553 -0.0830 9.9986 -2.9935 -5.9031 -15.0926 -20.8025 7.6361 14.2069 -38.4711 31.6576 2.0206 -18.1307 16.3208 0.0000 0.0000 0.0000 -91.7604 11.2172 18.1875 20.0677 -30.7238 -5.5659 -0.0000 -0.0000 6.2968 17.7723 24.9191 7.6914 -7.1250 0.0000 -0.0000 -12.6978 55.5338 -3.3217 0.0000 0.0000 0.0000 83.3559 1.3990 15.2676 -19.8924 30.5125 -5.4766 0.0000 0.0000 0.8050 -17.7290 6.9402 -2.2122 7.1250 -0.0000 -0.0000 6.6288 -22.7111 3.5788
5.5921 17.9728 -1.9314 7.5922 -54.9367 354.1570 0.0000 0.0000 0.0000 -25.3199 -4.9052 1.6053 3.8503 11.9585 35.5854 -0.7073 -15.7217 -0.1481 1.0608 -6.5484 -18.3842 0.0000 0.0000 0.0000 14.6830 12.5718 -16.6869 -2.8840 -10.5048 30.6274 0.3483 15.7057 -6.8434 -0.0281 -1.0816 2.9733 -4.7371 -4.6191 12.6163 5.7589 -6.5353 -0.0769 9.9890 -3.0366 -5.9230 -15.1487 -20.7933 7.6199 14.2106 -38.4466 31.6038 2.0304 -18.1269 16.3035 0.0000 -0.0000 0.0000 -91.7322 11.1107 18.4136 20.1473 -30.8194 -5.6066 -0.0000 -0.0000 6.0378 17.6711 25.2780 7.7469 -7.1250 0.0000 -0.0000 -12.9800 55.8701 -3.5040 0.0000 -0.0000 0.0000 83.3690 1.3948 14.9053 -19.8156 30.4195 -5.4376 0.0000 0.0000 0.9767 -17.4273 6.9749 -2.1830 7.1250 -0.0000 -0.0000 6.8489 -22.6879 3.7030
5.6808 17.9582 -1.9833 7.5386 -54.9102 354.2240 0.0000 0.0000 0.0000 -25.5955 -4.9912 2.7914 3.4583 11.4024 33.6493 -0.7289 -15.8394 0.1621 1.1125 -6.7009 -18.8324 0.0000 0.0000 0.0000 14.5680 12.7973 -17.2752 -2.9551 -10.6220 31.0155 0.3595 15.7052 -6.6865 -0.0335 -1.1807 3.2463 -4.7064 -4.7308 12.5914 5.7840 -6.6782 -0.1098 10.0180 -3.1078 -5.9164 -15.0781 -20.7731 7.6245 14.1132 -38.3909 31.6316 2.0108 -18.1077 16.2558 -0.0000 0.0000 0.0000 -91.6903 10.9324 18.5052 20.1876 -30.8677 -5.6273 -0.0000 -0.0000 5.8249 18.0723 25.5985 8.0251 -7.1250 0.0000 -0.0000 -12.7273 56.2703 -3.5583 -0.0000 0.0000 0.0000 83.5333 1.4141 14.4116 -19.7299 30.3156 -5.3944 0.0000 0.0000 1.3600 -17.3680 7.0212 -2.1894 7.1250 -0.0000 -0.0000 6.8911 -22.6423 3.7334
5.7637 17.9389 -2.0384 8.2185 -54.8192 353.7190 0.0000 0.0000 0.0000 -26.3495 -5.1865 3.9531 3.0811 10.8252 31.6925 -0.7497 -15.9685 0.4240 1.0889 -6.6319 -18.6294 0.0000 0.0000 0.0000 13.9763 13.0093 -17.9001 -3.0251 -10.7357 31.3935 0.3668 15.7354 -6.6157 -0.0086 -0.5984 1.6445 -5.1574 -4.8137 12.4365 5.6873 -6.8547 -0.1249 10.1736 -3.1906 -5.7705 -14.8962 -20.7563 7.4866 13.9387 -38.3250 31.7573 1.9388 -18.0630 16.2328 -0.0000 -0.0000 0.0000 -91.5823 10.6943 18.5191 20.1943 -30.8757 -5.6307 -0.0000 -0.0000 5.7113 18.5297 25.7140 8.2742 -7.1250 0.0000 -0.0000 -12.3099 56.4799 -3.5018 -0.0000 -0.0000 0.0000 83.7817 1.5079 13.7139 -19.5866 30.1410 -5.3222 0.0000 0.0000 1.9745 -17.6690 7.0889 -2.2512 7.1250 -0.0000 -0.0000 6.6695 -22.5589 3.6244
5.8493 17.9146 -2.0939 8.8710 -54.7945 353.1750 0.0000 0.0000 0.0000 -27.0866 -5.3690 5.1117 2.7329 10.2495 29.7885 -0.7656 -15.9969 0.8500 0.9014 -6.0508 -16.9318 0.0000 0.0000 0.0000 13.4062 13.3408 -18.4035 -3.0895 -10.8385 31.7372 0.3644 15.6301 -6.5348 -0.0001 -0.0545 0.1497 -5.6173 -4.8525 12.3928 5.6050 -6.9748 -0.1539 10.3582 -3.2398 -5.7087 -14.9253 -20.6785 7.5174 14.0470 -38.2629 31.7241 1.9979 -18.0406 16.2389 -0.0000 -0.0000 0.0000 -91.5193 10.5770 18.4284 20.2721 -30.9687 -5.6707 -0.0000 -0.0000 5.6067 18.6673 25.4065 8.2475 -7.1250 0.0000 -0.0000 -12.0124 56.2014 -3.3340 -0.0000 -0.0000 0.0000 83.9109 1.4810 13.2338 -19.4908 30.0239 -5.2742 0.0000 0.0000 2.2703 -17.8977 7.1589 -2.3047 7.1250 -0.0000 -0.0000 6.5008 -22.4759 3.5440
